<svg width="228" height="134" viewBox="0 0 228 134" fill="none" xmlns="http://www.w3.org/2000/svg">
<g filter="url(#filter0_d_2_221)">
<rect x="32" y="33" width="146" height="52" rx="26" fill="white" shape-rendering="crispEdges"/>
<path d="M62.02 63.39H65.68V64.5H60.655V54.045H62.02V63.39ZM74.6296 60.075C74.6296 60.335 74.6146 60.61 74.5846 60.9H68.0146C68.0646 61.71 68.3396 62.345 68.8396 62.805C69.3496 63.255 69.9646 63.48 70.6846 63.48C71.2746 63.48 71.7646 63.345 72.1546 63.075C72.5546 62.795 72.8346 62.425 72.9946 61.965H74.4646C74.2446 62.755 73.8046 63.4 73.1446 63.9C72.4846 64.39 71.6646 64.635 70.6846 64.635C69.9046 64.635 69.2046 64.46 68.5846 64.11C67.9746 63.76 67.4946 63.265 67.1446 62.625C66.7946 61.975 66.6196 61.225 66.6196 60.375C66.6196 59.525 66.7896 58.78 67.1296 58.14C67.4696 57.5 67.9446 57.01 68.5546 56.67C69.1746 56.32 69.8846 56.145 70.6846 56.145C71.4646 56.145 72.1546 56.315 72.7546 56.655C73.3546 56.995 73.8146 57.465 74.1346 58.065C74.4646 58.655 74.6296 59.325 74.6296 60.075ZM73.2196 59.79C73.2196 59.27 73.1046 58.825 72.8746 58.455C72.6446 58.075 72.3296 57.79 71.9296 57.6C71.5396 57.4 71.1046 57.3 70.6246 57.3C69.9346 57.3 69.3446 57.52 68.8546 57.96C68.3746 58.4 68.0996 59.01 68.0296 59.79H73.2196ZM78.0964 57.405V62.25C78.0964 62.65 78.1814 62.935 78.3514 63.105C78.5214 63.265 78.8164 63.345 79.2364 63.345H80.2414V64.5H79.0114C78.2514 64.5 77.6814 64.325 77.3014 63.975C76.9214 63.625 76.7314 63.05 76.7314 62.25V57.405H75.6664V56.28H76.7314V54.21H78.0964V56.28H80.2414V57.405H78.0964ZM82.1052 54.045H83.6202L82.1802 57.45H81.2202L82.1052 54.045ZM88.0865 64.635C87.4565 64.635 86.8915 64.53 86.3915 64.32C85.8915 64.1 85.4965 63.8 85.2065 63.42C84.9165 63.03 84.7565 62.585 84.7265 62.085H86.1365C86.1765 62.495 86.3665 62.83 86.7065 63.09C87.0565 63.35 87.5115 63.48 88.0715 63.48C88.5915 63.48 89.0015 63.365 89.3015 63.135C89.6015 62.905 89.7515 62.615 89.7515 62.265C89.7515 61.905 89.5915 61.64 89.2715 61.47C88.9515 61.29 88.4565 61.115 87.7865 60.945C87.1765 60.785 86.6765 60.625 86.2865 60.465C85.9065 60.295 85.5765 60.05 85.2965 59.73C85.0265 59.4 84.8915 58.97 84.8915 58.44C84.8915 58.02 85.0165 57.635 85.2665 57.285C85.5165 56.935 85.8715 56.66 86.3315 56.46C86.7915 56.25 87.3165 56.145 87.9065 56.145C88.8165 56.145 89.5515 56.375 90.1115 56.835C90.6715 57.295 90.9715 57.925 91.0115 58.725H89.6465C89.6165 58.295 89.4415 57.95 89.1215 57.69C88.8115 57.43 88.3915 57.3 87.8615 57.3C87.3715 57.3 86.9815 57.405 86.6915 57.615C86.4015 57.825 86.2565 58.1 86.2565 58.44C86.2565 58.71 86.3415 58.935 86.5115 59.115C86.6915 59.285 86.9115 59.425 87.1715 59.535C87.4415 59.635 87.8115 59.75 88.2815 59.88C88.8715 60.04 89.3515 60.2 89.7215 60.36C90.0915 60.51 90.4065 60.74 90.6665 61.05C90.9365 61.36 91.0765 61.765 91.0865 62.265C91.0865 62.715 90.9615 63.12 90.7115 63.48C90.4615 63.84 90.1065 64.125 89.6465 64.335C89.1965 64.535 88.6765 64.635 88.0865 64.635ZM99.9224 64.635C99.2924 64.635 98.7274 64.53 98.2274 64.32C97.7274 64.1 97.3324 63.8 97.0424 63.42C96.7524 63.03 96.5924 62.585 96.5624 62.085H97.9724C98.0124 62.495 98.2024 62.83 98.5424 63.09C98.8924 63.35 99.3474 63.48 99.9074 63.48C100.427 63.48 100.837 63.365 101.137 63.135C101.437 62.905 101.587 62.615 101.587 62.265C101.587 61.905 101.427 61.64 101.107 61.47C100.787 61.29 100.292 61.115 99.6224 60.945C99.0124 60.785 98.5124 60.625 98.1224 60.465C97.7424 60.295 97.4124 60.05 97.1324 59.73C96.8624 59.4 96.7274 58.97 96.7274 58.44C96.7274 58.02 96.8524 57.635 97.1024 57.285C97.3524 56.935 97.7074 56.66 98.1674 56.46C98.6274 56.25 99.1524 56.145 99.7424 56.145C100.652 56.145 101.387 56.375 101.947 56.835C102.507 57.295 102.807 57.925 102.847 58.725H101.482C101.452 58.295 101.277 57.95 100.957 57.69C100.647 57.43 100.227 57.3 99.6974 57.3C99.2074 57.3 98.8174 57.405 98.5274 57.615C98.2374 57.825 98.0924 58.1 98.0924 58.44C98.0924 58.71 98.1774 58.935 98.3474 59.115C98.5274 59.285 98.7474 59.425 99.0074 59.535C99.2774 59.635 99.6474 59.75 100.117 59.88C100.707 60.04 101.187 60.2 101.557 60.36C101.927 60.51 102.242 60.74 102.502 61.05C102.772 61.36 102.912 61.765 102.922 62.265C102.922 62.715 102.797 63.12 102.547 63.48C102.297 63.84 101.942 64.125 101.482 64.335C101.032 64.535 100.512 64.635 99.9224 64.635ZM106.514 57.405V62.25C106.514 62.65 106.599 62.935 106.769 63.105C106.939 63.265 107.234 63.345 107.654 63.345H108.659V64.5H107.429C106.669 64.5 106.099 64.325 105.719 63.975C105.339 63.625 105.149 63.05 105.149 62.25V57.405H104.084V56.28H105.149V54.21H106.514V56.28H108.659V57.405H106.514ZM109.803 60.36C109.803 59.52 109.973 58.785 110.313 58.155C110.653 57.515 111.118 57.02 111.708 56.67C112.308 56.32 112.973 56.145 113.703 56.145C114.423 56.145 115.048 56.3 115.578 56.61C116.108 56.92 116.503 57.31 116.763 57.78V56.28H118.143V64.5H116.763V62.97C116.493 63.45 116.088 63.85 115.548 64.17C115.018 64.48 114.398 64.635 113.688 64.635C112.958 64.635 112.298 64.455 111.708 64.095C111.118 63.735 110.653 63.23 110.313 62.58C109.973 61.93 109.803 61.19 109.803 60.36ZM116.763 60.375C116.763 59.755 116.638 59.215 116.388 58.755C116.138 58.295 115.798 57.945 115.368 57.705C114.948 57.455 114.483 57.33 113.973 57.33C113.463 57.33 112.998 57.45 112.578 57.69C112.158 57.93 111.823 58.28 111.573 58.74C111.323 59.2 111.198 59.74 111.198 60.36C111.198 60.99 111.323 61.54 111.573 62.01C111.823 62.47 112.158 62.825 112.578 63.075C112.998 63.315 113.463 63.435 113.973 63.435C114.483 63.435 114.948 63.315 115.368 63.075C115.798 62.825 116.138 62.47 116.388 62.01C116.638 61.54 116.763 60.995 116.763 60.375ZM121.815 57.615C122.055 57.145 122.395 56.78 122.835 56.52C123.285 56.26 123.83 56.13 124.47 56.13V57.54H124.11C122.58 57.54 121.815 58.37 121.815 60.03V64.5H120.45V56.28H121.815V57.615ZM127.711 57.405V62.25C127.711 62.65 127.796 62.935 127.966 63.105C128.136 63.265 128.431 63.345 128.851 63.345H129.856V64.5H128.626C127.866 64.5 127.296 64.325 126.916 63.975C126.536 63.625 126.346 63.05 126.346 62.25V57.405H125.281V56.28H126.346V54.21H127.711V56.28H129.856V57.405H127.711ZM139.009 60.075C139.009 60.335 138.994 60.61 138.964 60.9H132.394C132.444 61.71 132.719 62.345 133.219 62.805C133.729 63.255 134.344 63.48 135.064 63.48C135.654 63.48 136.144 63.345 136.534 63.075C136.934 62.795 137.214 62.425 137.374 61.965H138.844C138.624 62.755 138.184 63.4 137.524 63.9C136.864 64.39 136.044 64.635 135.064 64.635C134.284 64.635 133.584 64.46 132.964 64.11C132.354 63.76 131.874 63.265 131.524 62.625C131.174 61.975 130.999 61.225 130.999 60.375C130.999 59.525 131.169 58.78 131.509 58.14C131.849 57.5 132.324 57.01 132.934 56.67C133.554 56.32 134.264 56.145 135.064 56.145C135.844 56.145 136.534 56.315 137.134 56.655C137.734 56.995 138.194 57.465 138.514 58.065C138.844 58.655 139.009 59.325 139.009 60.075ZM137.599 59.79C137.599 59.27 137.484 58.825 137.254 58.455C137.024 58.075 136.709 57.79 136.309 57.6C135.919 57.4 135.484 57.3 135.004 57.3C134.314 57.3 133.724 57.52 133.234 57.96C132.754 58.4 132.479 59.01 132.409 59.79H137.599ZM140.301 60.36C140.301 59.52 140.471 58.785 140.811 58.155C141.151 57.515 141.616 57.02 142.206 56.67C142.806 56.32 143.476 56.145 144.216 56.145C144.856 56.145 145.451 56.295 146.001 56.595C146.551 56.885 146.971 57.27 147.261 57.75V53.4H148.641V64.5H147.261V62.955C146.991 63.445 146.591 63.85 146.061 64.17C145.531 64.48 144.911 64.635 144.201 64.635C143.471 64.635 142.806 64.455 142.206 64.095C141.616 63.735 141.151 63.23 140.811 62.58C140.471 61.93 140.301 61.19 140.301 60.36ZM147.261 60.375C147.261 59.755 147.136 59.215 146.886 58.755C146.636 58.295 146.296 57.945 145.866 57.705C145.446 57.455 144.981 57.33 144.471 57.33C143.961 57.33 143.496 57.45 143.076 57.69C142.656 57.93 142.321 58.28 142.071 58.74C141.821 59.2 141.696 59.74 141.696 60.36C141.696 60.99 141.821 61.54 142.071 62.01C142.321 62.47 142.656 62.825 143.076 63.075C143.496 63.315 143.961 63.435 144.471 63.435C144.981 63.435 145.446 63.315 145.866 63.075C146.296 62.825 146.636 62.47 146.886 62.01C147.136 61.54 147.261 60.995 147.261 60.375Z" fill="#3F3F3F"/>
</g>
<defs>
<filter id="filter0_d_2_221" x="0" y="0" width="228" height="134" filterUnits="userSpaceOnUse" color-interpolation-filters="sRGB">
<feFlood flood-opacity="0" result="BackgroundImageFix"/>
<feColorMatrix in="SourceAlpha" type="matrix" values="0 0 0 0 0 0 0 0 0 0 0 0 0 0 0 0 0 0 127 0" result="hardAlpha"/>
<feOffset dx="9" dy="8"/>
<feGaussianBlur stdDeviation="20.5"/>
<feComposite in2="hardAlpha" operator="out"/>
<feColorMatrix type="matrix" values="0 0 0 0 0 0 0 0 0 0 0 0 0 0 0 0 0 0 0.21 0"/>
<feBlend mode="normal" in2="BackgroundImageFix" result="effect1_dropShadow_2_221"/>
<feBlend mode="normal" in="SourceGraphic" in2="effect1_dropShadow_2_221" result="shape"/>
</filter>
</defs>
</svg>
