<svg width="319" height="129" viewBox="0 0 319 129" fill="none" xmlns="http://www.w3.org/2000/svg">
<circle cx="64.129" cy="64.129" r="45.5" transform="rotate(-139.715 64.129 64.129)" fill="#C9C9C9"/>
<path d="M76.5795 20.6328C84.7778 22.8903 92.1795 27.4001 97.9449 33.6506C103.71 39.9011 107.609 47.6422 109.198 55.9958C110.788 64.3494 110.004 72.9813 106.937 80.9123C103.87 88.8433 98.6412 95.756 91.8447 100.866C85.0482 105.977 76.9556 109.081 68.4848 109.825C60.014 110.57 51.504 108.926 43.9201 105.08C36.3362 101.234 29.9818 95.3392 25.5778 88.065C21.1737 80.7909 18.8962 72.4281 19.0037 63.9253L64.5 64.5L76.5795 20.6328Z" fill="#6B151D"/>
<circle cx="123.5" cy="16.5001" r="8.5" fill="#E7B944"/>
<path d="M161.738 25.1096C163.144 25.1096 164.373 25.3819 165.424 25.9266C166.488 26.4586 167.305 27.2312 167.875 28.2446C168.458 29.2452 168.749 30.4169 168.749 31.7596C168.749 33.1022 168.458 34.2676 167.875 35.2556C167.305 36.2436 166.488 37.0036 165.424 37.5356C164.373 38.0549 163.144 38.3146 161.738 38.3146H157.425V25.1096H161.738ZM161.738 36.5476C163.283 36.5476 164.468 36.1296 165.291 35.2936C166.114 34.4576 166.526 33.2796 166.526 31.7596C166.526 30.2269 166.114 29.0299 165.291 28.1686C164.468 27.3072 163.283 26.8766 161.738 26.8766H159.591V36.5476H161.738ZM175.437 38.4856C174.449 38.4856 173.556 38.2639 172.758 37.8206C171.96 37.3646 171.333 36.7312 170.877 35.9206C170.421 35.0972 170.193 34.1472 170.193 33.0706C170.193 32.0066 170.427 31.0629 170.896 30.2396C171.364 29.4162 172.004 28.7829 172.815 28.3396C173.625 27.8962 174.531 27.6746 175.532 27.6746C176.532 27.6746 177.438 27.8962 178.249 28.3396C179.059 28.7829 179.699 29.4162 180.168 30.2396C180.636 31.0629 180.871 32.0066 180.871 33.0706C180.871 34.1346 180.63 35.0782 180.149 35.9016C179.667 36.7249 179.009 37.3646 178.173 37.8206C177.349 38.2639 176.437 38.4856 175.437 38.4856ZM175.437 36.6046C175.994 36.6046 176.513 36.4716 176.995 36.2056C177.489 35.9396 177.888 35.5406 178.192 35.0086C178.496 34.4766 178.648 33.8306 178.648 33.0706C178.648 32.3106 178.502 31.6709 178.211 31.1516C177.919 30.6196 177.533 30.2206 177.052 29.9546C176.57 29.6886 176.051 29.5556 175.494 29.5556C174.936 29.5556 174.417 29.6886 173.936 29.9546C173.467 30.2206 173.093 30.6196 172.815 31.1516C172.536 31.6709 172.397 32.3106 172.397 33.0706C172.397 34.1979 172.682 35.0719 173.252 35.6926C173.834 36.3006 174.563 36.6046 175.437 36.6046ZM186.812 38.4856C185.989 38.4856 185.248 38.3399 184.589 38.0486C183.943 37.7446 183.43 37.3392 183.05 36.8326C182.67 36.3132 182.467 35.7369 182.442 35.1036H184.684C184.722 35.5469 184.931 35.9206 185.311 36.2246C185.704 36.5159 186.191 36.6616 186.774 36.6616C187.382 36.6616 187.851 36.5476 188.18 36.3196C188.522 36.0789 188.693 35.7749 188.693 35.4076C188.693 35.0149 188.503 34.7236 188.123 34.5336C187.756 34.3436 187.167 34.1346 186.356 33.9066C185.571 33.6912 184.931 33.4822 184.437 33.2796C183.943 33.0769 183.512 32.7666 183.145 32.3486C182.79 31.9306 182.613 31.3796 182.613 30.6956C182.613 30.1382 182.778 29.6316 183.107 29.1756C183.436 28.7069 183.905 28.3396 184.513 28.0736C185.134 27.8076 185.843 27.6746 186.641 27.6746C187.832 27.6746 188.788 27.9786 189.51 28.5866C190.245 29.1819 190.637 29.9989 190.688 31.0376H188.522C188.484 30.5689 188.294 30.1952 187.952 29.9166C187.61 29.6379 187.148 29.4986 186.565 29.4986C185.995 29.4986 185.558 29.6062 185.254 29.8216C184.95 30.0369 184.798 30.3219 184.798 30.6766C184.798 30.9552 184.899 31.1896 185.102 31.3796C185.305 31.5696 185.552 31.7216 185.843 31.8356C186.134 31.9369 186.565 32.0699 187.135 32.2346C187.895 32.4372 188.516 32.6462 188.997 32.8616C189.491 33.0642 189.915 33.3682 190.27 33.7736C190.625 34.1789 190.808 34.7172 190.821 35.3886C190.821 35.9839 190.656 36.5159 190.327 36.9846C189.998 37.4532 189.529 37.8206 188.921 38.0866C188.326 38.3526 187.623 38.4856 186.812 38.4856ZM202.756 32.8236C202.756 33.2162 202.731 33.5709 202.68 33.8876H194.681C194.745 34.7236 195.055 35.3949 195.612 35.9016C196.17 36.4082 196.854 36.6616 197.664 36.6616C198.83 36.6616 199.653 36.1739 200.134 35.1986H202.471C202.155 36.1612 201.578 36.9529 200.742 37.5736C199.919 38.1816 198.893 38.4856 197.664 38.4856C196.664 38.4856 195.764 38.2639 194.966 37.8206C194.181 37.3646 193.56 36.7312 193.104 35.9206C192.661 35.0972 192.439 34.1472 192.439 33.0706C192.439 31.9939 192.655 31.0502 193.085 30.2396C193.529 29.4162 194.143 28.7829 194.928 28.3396C195.726 27.8962 196.638 27.6746 197.664 27.6746C198.652 27.6746 199.533 27.8899 200.305 28.3206C201.078 28.7512 201.68 29.3592 202.11 30.1446C202.541 30.9172 202.756 31.8102 202.756 32.8236ZM200.495 32.1396C200.483 31.3416 200.198 30.7019 199.64 30.2206C199.083 29.7392 198.393 29.4986 197.569 29.4986C196.822 29.4986 196.182 29.7392 195.65 30.2206C195.118 30.6892 194.802 31.3289 194.7 32.1396H200.495ZM215.105 27.6746C215.929 27.6746 216.663 27.8456 217.309 28.1876C217.968 28.5296 218.481 29.0362 218.848 29.7076C219.216 30.3789 219.399 31.1896 219.399 32.1396V38.3146H217.252V32.4626C217.252 31.5252 217.018 30.8096 216.549 30.3156C216.081 29.8089 215.441 29.5556 214.63 29.5556C213.82 29.5556 213.174 29.8089 212.692 30.3156C212.224 30.8096 211.989 31.5252 211.989 32.4626V38.3146H209.823V27.8456H211.989V29.0426C212.344 28.6119 212.794 28.2762 213.338 28.0356C213.896 27.7949 214.485 27.6746 215.105 27.6746ZM226.703 38.4856C225.715 38.4856 224.822 38.2639 224.024 37.8206C223.226 37.3646 222.599 36.7312 222.143 35.9206C221.687 35.0972 221.459 34.1472 221.459 33.0706C221.459 32.0066 221.694 31.0629 222.162 30.2396C222.631 29.4162 223.271 28.7829 224.081 28.3396C224.892 27.8962 225.798 27.6746 226.798 27.6746C227.799 27.6746 228.705 27.8962 229.515 28.3396C230.326 28.7829 230.966 29.4162 231.434 30.2396C231.903 31.0629 232.137 32.0066 232.137 33.0706C232.137 34.1346 231.897 35.0782 231.415 35.9016C230.934 36.7249 230.275 37.3646 229.439 37.8206C228.616 38.2639 227.704 38.4856 226.703 38.4856ZM226.703 36.6046C227.261 36.6046 227.78 36.4716 228.261 36.2056C228.755 35.9396 229.154 35.5406 229.458 35.0086C229.762 34.4766 229.914 33.8306 229.914 33.0706C229.914 32.3106 229.769 31.6709 229.477 31.1516C229.186 30.6196 228.8 30.2206 228.318 29.9546C227.837 29.6886 227.318 29.5556 226.76 29.5556C226.203 29.5556 225.684 29.6886 225.202 29.9546C224.734 30.2206 224.36 30.6196 224.081 31.1516C223.803 31.6709 223.663 32.3106 223.663 33.0706C223.663 34.1979 223.948 35.0719 224.518 35.6926C225.101 36.3006 225.829 36.6046 226.703 36.6046ZM236.806 29.6126V35.4076C236.806 35.8002 236.894 36.0852 237.072 36.2626C237.262 36.4272 237.578 36.5096 238.022 36.5096H239.352V38.3146H237.642C236.666 38.3146 235.919 38.0866 235.4 37.6306C234.88 37.1746 234.621 36.4336 234.621 35.4076V29.6126H233.386V27.8456H234.621V25.2426H236.806V27.8456H239.352V29.6126H236.806ZM245.561 33.0706C245.561 31.9939 245.777 31.0502 246.207 30.2396C246.651 29.4162 247.259 28.7829 248.031 28.3396C248.804 27.8962 249.691 27.6746 250.691 27.6746C251.958 27.6746 253.003 27.9786 253.826 28.5866C254.662 29.1819 255.226 30.0369 255.517 31.1516H253.18C252.99 30.6322 252.686 30.2269 252.268 29.9356C251.85 29.6442 251.325 29.4986 250.691 29.4986C249.805 29.4986 249.095 29.8152 248.563 30.4486C248.044 31.0692 247.784 31.9432 247.784 33.0706C247.784 34.1979 248.044 35.0782 248.563 35.7116C249.095 36.3449 249.805 36.6616 250.691 36.6616C251.945 36.6616 252.775 36.1106 253.18 35.0086H255.517C255.213 36.0726 254.643 36.9212 253.807 37.5546C252.971 38.1752 251.933 38.4856 250.691 38.4856C249.691 38.4856 248.804 38.2639 248.031 37.8206C247.259 37.3646 246.651 36.7312 246.207 35.9206C245.777 35.0972 245.561 34.1472 245.561 33.0706ZM262.217 38.4856C261.229 38.4856 260.336 38.2639 259.538 37.8206C258.74 37.3646 258.113 36.7312 257.657 35.9206C257.201 35.0972 256.973 34.1472 256.973 33.0706C256.973 32.0066 257.207 31.0629 257.676 30.2396C258.145 29.4162 258.784 28.7829 259.595 28.3396C260.406 27.8962 261.311 27.6746 262.312 27.6746C263.313 27.6746 264.218 27.8962 265.029 28.3396C265.84 28.7829 266.479 29.4162 266.948 30.2396C267.417 31.0629 267.651 32.0066 267.651 33.0706C267.651 34.1346 267.41 35.0782 266.929 35.9016C266.448 36.7249 265.789 37.3646 264.953 37.8206C264.13 38.2639 263.218 38.4856 262.217 38.4856ZM262.217 36.6046C262.774 36.6046 263.294 36.4716 263.775 36.2056C264.269 35.9396 264.668 35.5406 264.972 35.0086C265.276 34.4766 265.428 33.8306 265.428 33.0706C265.428 32.3106 265.282 31.6709 264.991 31.1516C264.7 30.6196 264.313 30.2206 263.832 29.9546C263.351 29.6886 262.831 29.5556 262.274 29.5556C261.717 29.5556 261.197 29.6886 260.716 29.9546C260.247 30.2206 259.874 30.6196 259.595 31.1516C259.316 31.6709 259.177 32.3106 259.177 33.0706C259.177 34.1979 259.462 35.0719 260.032 35.6926C260.615 36.3006 261.343 36.6046 262.217 36.6046ZM275.074 27.6746C275.898 27.6746 276.632 27.8456 277.278 28.1876C277.937 28.5296 278.45 29.0362 278.817 29.7076C279.185 30.3789 279.368 31.1896 279.368 32.1396V38.3146H277.221V32.4626C277.221 31.5252 276.987 30.8096 276.518 30.3156C276.05 29.8089 275.41 29.5556 274.599 29.5556C273.789 29.5556 273.143 29.8089 272.661 30.3156C272.193 30.8096 271.958 31.5252 271.958 32.4626V38.3146H269.792V27.8456H271.958V29.0426C272.313 28.6119 272.763 28.2762 273.307 28.0356C273.865 27.7949 274.454 27.6746 275.074 27.6746ZM284.658 29.6126V35.4076C284.658 35.8002 284.747 36.0852 284.924 36.2626C285.114 36.4272 285.431 36.5096 285.874 36.5096H287.204V38.3146H285.494C284.519 38.3146 283.771 38.0866 283.252 37.6306C282.733 37.1746 282.473 36.4336 282.473 35.4076V29.6126H281.238V27.8456H282.473V25.2426H284.658V27.8456H287.204V29.6126H284.658ZM288.478 33.0326C288.478 31.9812 288.694 31.0502 289.124 30.2396C289.568 29.4289 290.163 28.8019 290.91 28.3586C291.67 27.9026 292.506 27.6746 293.418 27.6746C294.242 27.6746 294.957 27.8392 295.565 28.1686C296.186 28.4852 296.68 28.8842 297.047 29.3656V27.8456H299.232V38.3146H297.047V36.7566C296.68 37.2506 296.18 37.6622 295.546 37.9916C294.913 38.3209 294.191 38.4856 293.38 38.4856C292.481 38.4856 291.658 38.2576 290.91 37.8016C290.163 37.3329 289.568 36.6869 289.124 35.8636C288.694 35.0276 288.478 34.0839 288.478 33.0326ZM297.047 33.0706C297.047 32.3486 296.895 31.7216 296.591 31.1896C296.3 30.6576 295.914 30.2522 295.432 29.9736C294.951 29.6949 294.432 29.5556 293.874 29.5556C293.317 29.5556 292.798 29.6949 292.316 29.9736C291.835 30.2396 291.442 30.6386 291.138 31.1706C290.847 31.6899 290.701 32.3106 290.701 33.0326C290.701 33.7546 290.847 34.3879 291.138 34.9326C291.442 35.4772 291.835 35.8952 292.316 36.1866C292.81 36.4652 293.33 36.6046 293.874 36.6046C294.432 36.6046 294.951 36.4652 295.432 36.1866C295.914 35.9079 296.3 35.5026 296.591 34.9706C296.895 34.4259 297.047 33.7926 297.047 33.0706ZM303.179 26.4586C302.787 26.4586 302.457 26.3256 302.191 26.0596C301.925 25.7936 301.792 25.4642 301.792 25.0716C301.792 24.6789 301.925 24.3496 302.191 24.0836C302.457 23.8176 302.787 23.6846 303.179 23.6846C303.559 23.6846 303.882 23.8176 304.148 24.0836C304.414 24.3496 304.547 24.6789 304.547 25.0716C304.547 25.4642 304.414 25.7936 304.148 26.0596C303.882 26.3256 303.559 26.4586 303.179 26.4586ZM304.243 27.8456V38.3146H302.077V27.8456H304.243ZM312.369 27.6746C313.192 27.6746 313.927 27.8456 314.573 28.1876C315.232 28.5296 315.745 29.0362 316.112 29.7076C316.479 30.3789 316.663 31.1896 316.663 32.1396V38.3146H314.516V32.4626C314.516 31.5252 314.282 30.8096 313.813 30.3156C313.344 29.8089 312.705 29.5556 311.894 29.5556C311.083 29.5556 310.437 29.8089 309.956 30.3156C309.487 30.8096 309.253 31.5252 309.253 32.4626V38.3146H307.087V27.8456H309.253V29.0426C309.608 28.6119 310.057 28.2762 310.602 28.0356C311.159 27.7949 311.748 27.6746 312.369 27.6746ZM156.703 62.0326C156.703 60.9812 156.918 60.0502 157.349 59.2396C157.792 58.4289 158.388 57.8019 159.135 57.3586C159.895 56.9026 160.731 56.6746 161.643 56.6746C162.466 56.6746 163.182 56.8392 163.79 57.1686C164.411 57.4852 164.905 57.8842 165.272 58.3656V56.8456H167.457V67.3146H165.272V65.7566C164.905 66.2506 164.404 66.6622 163.771 66.9916C163.138 67.3209 162.416 67.4856 161.605 67.4856C160.706 67.4856 159.882 67.2576 159.135 66.8016C158.388 66.3329 157.792 65.6869 157.349 64.8636C156.918 64.0276 156.703 63.0839 156.703 62.0326ZM165.272 62.0706C165.272 61.3486 165.12 60.7216 164.816 60.1896C164.525 59.6576 164.138 59.2522 163.657 58.9736C163.176 58.6949 162.656 58.5556 162.099 58.5556C161.542 58.5556 161.022 58.6949 160.541 58.9736C160.06 59.2396 159.667 59.6386 159.363 60.1706C159.072 60.6899 158.926 61.3106 158.926 62.0326C158.926 62.7546 159.072 63.3879 159.363 63.9326C159.667 64.4772 160.06 64.8952 160.541 65.1866C161.035 65.4652 161.554 65.6046 162.099 65.6046C162.656 65.6046 163.176 65.4652 163.657 65.1866C164.138 64.9079 164.525 64.5026 164.816 63.9706C165.12 63.4259 165.272 62.7926 165.272 62.0706ZM172.468 53.2546V67.3146H170.302V53.2546H172.468ZM174.59 62.0706C174.59 60.9939 174.805 60.0502 175.236 59.2396C175.679 58.4162 176.287 57.7829 177.06 57.3396C177.832 56.8962 178.719 56.6746 179.72 56.6746C180.986 56.6746 182.031 56.9786 182.855 57.5866C183.691 58.1819 184.254 59.0369 184.546 60.1516H182.209C182.019 59.6322 181.715 59.2269 181.297 58.9356C180.879 58.6442 180.353 58.4986 179.72 58.4986C178.833 58.4986 178.124 58.8152 177.592 59.4486C177.072 60.0692 176.813 60.9432 176.813 62.0706C176.813 63.1979 177.072 64.0782 177.592 64.7116C178.124 65.3449 178.833 65.6616 179.72 65.6616C180.974 65.6616 181.803 65.1106 182.209 64.0086H184.546C184.242 65.0726 183.672 65.9212 182.836 66.5546C182 67.1752 180.961 67.4856 179.72 67.4856C178.719 67.4856 177.832 67.2639 177.06 66.8206C176.287 66.3646 175.679 65.7312 175.236 64.9206C174.805 64.0972 174.59 63.1472 174.59 62.0706ZM191.245 67.4856C190.257 67.4856 189.364 67.2639 188.566 66.8206C187.768 66.3646 187.141 65.7312 186.685 64.9206C186.229 64.0972 186.001 63.1472 186.001 62.0706C186.001 61.0066 186.236 60.0629 186.704 59.2396C187.173 58.4162 187.813 57.7829 188.623 57.3396C189.434 56.8962 190.34 56.6746 191.34 56.6746C192.341 56.6746 193.247 56.8962 194.057 57.3396C194.868 57.7829 195.508 58.4162 195.976 59.2396C196.445 60.0629 196.679 61.0066 196.679 62.0706C196.679 63.1346 196.439 64.0782 195.957 64.9016C195.476 65.7249 194.817 66.3646 193.981 66.8206C193.158 67.2639 192.246 67.4856 191.245 67.4856ZM191.245 65.6046C191.803 65.6046 192.322 65.4716 192.803 65.2056C193.297 64.9396 193.696 64.5406 194 64.0086C194.304 63.4766 194.456 62.8306 194.456 62.0706C194.456 61.3106 194.311 60.6709 194.019 60.1516C193.728 59.6196 193.342 59.2206 192.86 58.9546C192.379 58.6886 191.86 58.5556 191.302 58.5556C190.745 58.5556 190.226 58.6886 189.744 58.9546C189.276 59.2206 188.902 59.6196 188.623 60.1516C188.345 60.6709 188.205 61.3106 188.205 62.0706C188.205 63.1979 188.49 64.0719 189.06 64.6926C189.643 65.3006 190.371 65.6046 191.245 65.6046ZM204.236 56.6746C205.034 56.6746 205.743 56.8456 206.364 57.1876C206.997 57.5296 207.491 58.0362 207.846 58.7076C208.213 59.3789 208.397 60.1896 208.397 61.1396V67.3146H206.25V61.4626C206.25 60.5252 206.015 59.8096 205.547 59.3156C205.078 58.8089 204.438 58.5556 203.628 58.5556C202.817 58.5556 202.171 58.8089 201.69 59.3156C201.221 59.8096 200.987 60.5252 200.987 61.4626V67.3146H198.821V53.2546H200.987V58.0616C201.354 57.6182 201.816 57.2762 202.374 57.0356C202.944 56.7949 203.564 56.6746 204.236 56.6746ZM215.7 67.4856C214.712 67.4856 213.819 67.2639 213.021 66.8206C212.223 66.3646 211.596 65.7312 211.14 64.9206C210.684 64.0972 210.456 63.1472 210.456 62.0706C210.456 61.0066 210.691 60.0629 211.159 59.2396C211.628 58.4162 212.268 57.7829 213.078 57.3396C213.889 56.8962 214.795 56.6746 215.795 56.6746C216.796 56.6746 217.702 56.8962 218.512 57.3396C219.323 57.7829 219.963 58.4162 220.431 59.2396C220.9 60.0629 221.134 61.0066 221.134 62.0706C221.134 63.1346 220.894 64.0782 220.412 64.9016C219.931 65.7249 219.272 66.3646 218.436 66.8206C217.613 67.2639 216.701 67.4856 215.7 67.4856ZM215.7 65.6046C216.258 65.6046 216.777 65.4716 217.258 65.2056C217.752 64.9396 218.151 64.5406 218.455 64.0086C218.759 63.4766 218.911 62.8306 218.911 62.0706C218.911 61.3106 218.766 60.6709 218.474 60.1516C218.183 59.6196 217.797 59.2206 217.315 58.9546C216.834 58.6886 216.315 58.5556 215.757 58.5556C215.2 58.5556 214.681 58.6886 214.199 58.9546C213.731 59.2206 213.357 59.6196 213.078 60.1516C212.8 60.6709 212.66 61.3106 212.66 62.0706C212.66 63.1979 212.945 64.0719 213.515 64.6926C214.098 65.3006 214.826 65.6046 215.7 65.6046ZM225.442 53.2546V67.3146H223.276V53.2546H225.442Z" fill="#414141"/>
<path d="M166.659 94.0426C166.659 94.7139 166.501 95.3472 166.184 95.9426C165.867 96.5379 165.361 97.0256 164.664 97.4056C163.967 97.7729 163.074 97.9566 161.985 97.9566H159.591V103.315H157.425V90.1096H161.985C162.998 90.1096 163.853 90.2869 164.55 90.6416C165.259 90.9836 165.785 91.4522 166.127 92.0476C166.482 92.6429 166.659 93.3079 166.659 94.0426ZM161.985 96.1896C162.808 96.1896 163.423 96.0059 163.828 95.6386C164.233 95.2586 164.436 94.7266 164.436 94.0426C164.436 92.5986 163.619 91.8766 161.985 91.8766H159.591V96.1896H161.985ZM179.27 90.1096V103.315H177.104V97.5386H170.891V103.315H168.725V90.1096H170.891V95.7716H177.104V90.1096H179.27ZM186.734 92.8836C186.81 91.7056 187.26 90.7872 188.083 90.1286C188.919 89.4699 189.983 89.1406 191.275 89.1406C192.162 89.1406 192.928 89.2989 193.574 89.6156C194.22 89.9322 194.708 90.3629 195.037 90.9076C195.366 91.4522 195.531 92.0666 195.531 92.7506C195.531 93.5359 195.322 94.2072 194.904 94.7646C194.486 95.3219 193.986 95.6956 193.403 95.8856V95.9616C194.15 96.1896 194.733 96.6076 195.151 97.2156C195.569 97.8109 195.778 98.5772 195.778 99.5146C195.778 100.262 195.607 100.927 195.265 101.51C194.923 102.092 194.416 102.555 193.745 102.897C193.074 103.226 192.269 103.391 191.332 103.391C189.964 103.391 188.837 103.042 187.95 102.346C187.076 101.636 186.607 100.623 186.544 99.3056H188.634C188.685 99.9769 188.944 100.528 189.413 100.959C189.882 101.377 190.515 101.586 191.313 101.586C192.086 101.586 192.681 101.377 193.099 100.959C193.517 100.528 193.726 99.9769 193.726 99.3056C193.726 98.4189 193.441 97.7919 192.871 97.4246C192.314 97.0446 191.452 96.8546 190.287 96.8546H189.793V95.0686H190.306C191.332 95.0559 192.111 94.8849 192.643 94.5556C193.188 94.2262 193.46 93.7069 193.46 92.9976C193.46 92.3896 193.264 91.9082 192.871 91.5536C192.478 91.1862 191.921 91.0026 191.199 91.0026C190.49 91.0026 189.939 91.1862 189.546 91.5536C189.153 91.9082 188.919 92.3516 188.843 92.8836H186.734ZM199.212 103.448C198.819 103.448 198.49 103.315 198.224 103.049C197.958 102.783 197.825 102.453 197.825 102.061C197.825 101.668 197.958 101.339 198.224 101.073C198.49 100.807 198.819 100.674 199.212 100.674C199.592 100.674 199.915 100.807 200.181 101.073C200.447 101.339 200.58 101.668 200.58 102.061C200.58 102.453 200.447 102.783 200.181 103.049C199.915 103.315 199.592 103.448 199.212 103.448ZM211.566 91.3256H205.201V95.1066C205.467 94.7519 205.86 94.4542 206.379 94.2136C206.911 93.9729 207.475 93.8526 208.07 93.8526C209.134 93.8526 209.995 94.0806 210.654 94.5366C211.325 94.9926 211.8 95.5689 212.079 96.2656C212.37 96.9622 212.516 97.6969 212.516 98.4696C212.516 99.4069 212.332 100.243 211.965 100.978C211.61 101.7 211.072 102.27 210.35 102.688C209.641 103.106 208.767 103.315 207.728 103.315C206.347 103.315 205.239 102.973 204.403 102.289C203.567 101.605 203.067 100.699 202.902 99.5716H205.011C205.15 100.167 205.461 100.642 205.942 100.997C206.423 101.339 207.025 101.51 207.747 101.51C208.646 101.51 209.318 101.237 209.761 100.693C210.217 100.148 210.445 99.4259 210.445 98.5266C210.445 97.6146 210.217 96.9179 209.761 96.4366C209.305 95.9426 208.634 95.6956 207.747 95.6956C207.126 95.6956 206.601 95.8539 206.17 96.1706C205.752 96.4746 205.448 96.8926 205.258 97.4246H203.206V89.4256H211.566V91.3256Z" fill="#2D2D2D"/>
</svg>
