<svg width="196" height="66" viewBox="0 0 196 66" fill="none" xmlns="http://www.w3.org/2000/svg">
<rect x="23" y="22" width="21" height="21" rx="10.5" fill="#B91122"/>
<path d="M38.0625 32.5L31.2187 36.4512L31.2187 28.5487L38.0625 32.5Z" fill="#D9D9D9"/>
<path d="M47.7232 51.2584C43.9449 54.3204 39.3255 56.1622 34.477 56.54C29.6285 56.9178 24.7796 55.8137 20.5726 53.374C16.3656 50.9343 12.999 47.2741 10.9188 42.8782C8.83868 38.4823 8.14306 33.5581 8.92412 28.758C9.70518 23.9579 11.9261 19.5084 15.2926 15.9987C18.6592 12.4891 23.0125 10.085 27.7759 9.10497C32.5394 8.1249 37.4882 8.61508 41.9668 10.5106C46.4455 12.4061 50.2426 15.6174 52.8552 19.7193L51.6845 20.465C49.223 16.6003 45.6455 13.5747 41.4258 11.7888C37.2062 10.0029 32.5436 9.54108 28.0556 10.4645C23.5677 11.3879 19.4661 13.6529 16.2943 16.9596C13.1224 20.2662 11.03 24.4584 10.2941 28.9809C9.55818 33.5034 10.2136 38.1428 12.1734 42.2845C14.1333 46.4262 17.3052 49.8747 21.2689 52.1733C25.2326 54.472 29.801 55.5122 34.3692 55.1562C38.9373 54.8003 43.2895 53.065 46.8493 50.1801L47.7232 51.2584Z" fill="#F1A5AD"/>
<path d="M102.565 26.6026V39.1126H100.513V33.6406H94.6271V39.1126H92.5751V26.6026H94.6271V31.9666H100.513V26.6026H102.565ZM109.569 39.2746C108.633 39.2746 107.787 39.0646 107.031 38.6446C106.275 38.2126 105.681 37.6126 105.249 36.8446C104.817 36.0646 104.601 35.1646 104.601 34.1446C104.601 33.1366 104.823 32.2426 105.267 31.4626C105.711 30.6826 106.317 30.0826 107.085 29.6626C107.853 29.2426 108.711 29.0326 109.659 29.0326C110.607 29.0326 111.465 29.2426 112.233 29.6626C113.001 30.0826 113.607 30.6826 114.051 31.4626C114.495 32.2426 114.717 33.1366 114.717 34.1446C114.717 35.1526 114.489 36.0466 114.033 36.8266C113.577 37.6066 112.953 38.2126 112.161 38.6446C111.381 39.0646 110.517 39.2746 109.569 39.2746ZM109.569 37.4926C110.097 37.4926 110.589 37.3666 111.045 37.1146C111.513 36.8626 111.891 36.4846 112.179 35.9806C112.467 35.4766 112.611 34.8646 112.611 34.1446C112.611 33.4246 112.473 32.8186 112.197 32.3266C111.921 31.8226 111.555 31.4446 111.099 31.1926C110.643 30.9406 110.151 30.8146 109.623 30.8146C109.095 30.8146 108.603 30.9406 108.147 31.1926C107.703 31.4446 107.349 31.8226 107.085 32.3266C106.821 32.8186 106.689 33.4246 106.689 34.1446C106.689 35.2126 106.959 36.0406 107.499 36.6286C108.051 37.2046 108.741 37.4926 109.569 37.4926ZM130.065 29.1946L126.987 39.1126H124.827L122.829 31.7866L120.831 39.1126H118.671L115.575 29.1946H117.663L119.733 37.1686L121.839 29.1946H123.981L125.997 37.1326L128.049 29.1946H130.065ZM137.318 27.8806C136.946 27.8806 136.634 27.7546 136.382 27.5026C136.13 27.2506 136.004 26.9386 136.004 26.5666C136.004 26.1946 136.13 25.8826 136.382 25.6306C136.634 25.3786 136.946 25.2526 137.318 25.2526C137.678 25.2526 137.984 25.3786 138.236 25.6306C138.488 25.8826 138.614 26.1946 138.614 26.5666C138.614 26.9386 138.488 27.2506 138.236 27.5026C137.984 27.7546 137.678 27.8806 137.318 27.8806ZM138.326 29.1946V39.1126H136.274V29.1946H138.326ZM143.414 30.8686V36.3586C143.414 36.7306 143.498 37.0006 143.666 37.1686C143.846 37.3246 144.146 37.4026 144.566 37.4026H145.826V39.1126H144.206C143.282 39.1126 142.574 38.8966 142.082 38.4646C141.59 38.0326 141.344 37.3306 141.344 36.3586V30.8686H140.174V29.1946H141.344V26.7286H143.414V29.1946H145.826V30.8686H143.414ZM165.713 29.1946L162.635 39.1126H160.475L158.477 31.7866L156.479 39.1126H154.319L151.223 29.1946H153.311L155.381 37.1686L157.487 29.1946H159.629L161.645 37.1326L163.697 29.1946H165.713ZM171.549 39.2746C170.613 39.2746 169.767 39.0646 169.011 38.6446C168.255 38.2126 167.661 37.6126 167.229 36.8446C166.797 36.0646 166.581 35.1646 166.581 34.1446C166.581 33.1366 166.803 32.2426 167.247 31.4626C167.691 30.6826 168.297 30.0826 169.065 29.6626C169.833 29.2426 170.691 29.0326 171.639 29.0326C172.587 29.0326 173.445 29.2426 174.213 29.6626C174.981 30.0826 175.587 30.6826 176.031 31.4626C176.475 32.2426 176.697 33.1366 176.697 34.1446C176.697 35.1526 176.469 36.0466 176.013 36.8266C175.557 37.6066 174.933 38.2126 174.141 38.6446C173.361 39.0646 172.497 39.2746 171.549 39.2746ZM171.549 37.4926C172.077 37.4926 172.569 37.3666 173.025 37.1146C173.493 36.8626 173.871 36.4846 174.159 35.9806C174.447 35.4766 174.591 34.8646 174.591 34.1446C174.591 33.4246 174.453 32.8186 174.177 32.3266C173.901 31.8226 173.535 31.4446 173.079 31.1926C172.623 30.9406 172.131 30.8146 171.603 30.8146C171.075 30.8146 170.583 30.9406 170.127 31.1926C169.683 31.4446 169.329 31.8226 169.065 32.3266C168.801 32.8186 168.669 33.4246 168.669 34.1446C168.669 35.2126 168.939 36.0406 169.479 36.6286C170.031 37.2046 170.721 37.4926 171.549 37.4926ZM180.778 30.6346C181.078 30.1306 181.474 29.7406 181.966 29.4646C182.47 29.1766 183.064 29.0326 183.748 29.0326V31.1566H183.226C182.422 31.1566 181.81 31.3606 181.39 31.7686C180.982 32.1766 180.778 32.8846 180.778 33.8926V39.1126H178.726V29.1946H180.778V30.6346ZM189.558 34.1626L194.13 39.1126H191.358L187.686 34.8466V39.1126H185.634V25.7926H187.686V33.5326L191.286 29.1946H194.13L189.558 34.1626Z" fill="#797979"/>
</svg>
