<svg width="183" height="66" viewBox="0 0 183 66" fill="none" xmlns="http://www.w3.org/2000/svg">
<path d="M47.7232 51.2583C43.9449 54.3203 39.3255 56.1621 34.477 56.5399C29.6285 56.9177 24.7796 55.8136 20.5726 53.3739C16.3656 50.9342 12.999 47.274 10.9188 42.8781C8.83868 38.4822 8.14306 33.558 8.92412 28.7579C9.70518 23.9578 11.9261 19.5083 15.2926 15.9986C18.6592 12.489 23.0125 10.0849 27.7759 9.10487C32.5394 8.1248 37.4882 8.61498 41.9668 10.5105C46.4455 12.406 50.2426 15.6173 52.8552 19.7192L51.6845 20.4649C49.223 16.6002 45.6455 13.5746 41.4258 11.7887C37.2062 10.0028 32.5436 9.54098 28.0556 10.4644C23.5677 11.3878 19.4661 13.6528 16.2943 16.9595C13.1224 20.2661 11.03 24.4583 10.2941 28.9808C9.55818 33.5033 10.2136 38.1427 12.1734 42.2844C14.1333 46.4261 17.3052 49.8746 21.2689 52.1732C25.2326 54.4719 29.801 55.5121 34.3692 55.1562C38.9373 54.8002 43.2895 53.0649 46.8493 50.18L47.7232 51.2583Z" fill="#DA4B5A"/>
<path d="M35.43 26.9299L41.5 32.9999L35.43 39.0699" stroke="#DA4B5A" stroke-width="1.5" stroke-miterlimit="10" stroke-linecap="round" stroke-linejoin="round"/>
<path d="M24.5 33H41.33" stroke="#DA4B5A" stroke-width="1.5" stroke-miterlimit="10" stroke-linecap="round" stroke-linejoin="round"/>
<path d="M82.6271 37.4565H86.8571V39.1125H80.5751V26.6025H82.6271V37.4565ZM97.6632 33.9105C97.6632 34.2825 97.6392 34.6185 97.5912 34.9185H90.0132C90.0732 35.7105 90.3672 36.3465 90.8952 36.8265C91.4232 37.3065 92.0712 37.5465 92.8392 37.5465C93.9432 37.5465 94.7232 37.0845 95.1792 36.1605H97.3932C97.0932 37.0725 96.5472 37.8225 95.7552 38.4105C94.9752 38.9865 94.0032 39.2745 92.8392 39.2745C91.8912 39.2745 91.0392 39.0645 90.2832 38.6445C89.5392 38.2125 88.9512 37.6125 88.5192 36.8445C88.0992 36.0645 87.8892 35.1645 87.8892 34.1445C87.8892 33.1245 88.0932 32.2305 88.5012 31.4625C88.9212 30.6825 89.5032 30.0825 90.2472 29.6625C91.0032 29.2425 91.8672 29.0325 92.8392 29.0325C93.7752 29.0325 94.6092 29.2365 95.3412 29.6445C96.0732 30.0525 96.6432 30.6285 97.0512 31.3725C97.4592 32.1045 97.6632 32.9505 97.6632 33.9105ZM95.5212 33.2625C95.5092 32.5065 95.2392 31.9005 94.7112 31.4445C94.1832 30.9885 93.5292 30.7605 92.7492 30.7605C92.0412 30.7605 91.4352 30.9885 90.9312 31.4445C90.4272 31.8885 90.1272 32.4945 90.0312 33.2625H95.5212ZM98.9986 34.1085C98.9986 33.1125 99.2026 32.2305 99.6106 31.4625C100.031 30.6945 100.595 30.1005 101.303 29.6805C102.023 29.2485 102.815 29.0325 103.679 29.0325C104.459 29.0325 105.137 29.1885 105.713 29.5005C106.301 29.8005 106.769 30.1785 107.117 30.6345V29.1945H109.187V39.1125H107.117V37.6365C106.769 38.1045 106.295 38.4945 105.695 38.8065C105.095 39.1185 104.411 39.2745 103.643 39.2745C102.791 39.2745 102.011 39.0585 101.303 38.6265C100.595 38.1825 100.031 37.5705 99.6106 36.7905C99.2026 35.9985 98.9986 35.1045 98.9986 34.1085ZM107.117 34.1445C107.117 33.4605 106.973 32.8665 106.685 32.3625C106.409 31.8585 106.043 31.4745 105.587 31.2105C105.131 30.9465 104.639 30.8145 104.111 30.8145C103.583 30.8145 103.091 30.9465 102.635 31.2105C102.179 31.4625 101.807 31.8405 101.519 32.3445C101.243 32.8365 101.105 33.4245 101.105 34.1085C101.105 34.7925 101.243 35.3925 101.519 35.9085C101.807 36.4245 102.179 36.8205 102.635 37.0965C103.103 37.3605 103.595 37.4925 104.111 37.4925C104.639 37.4925 105.131 37.3605 105.587 37.0965C106.043 36.8325 106.409 36.4485 106.685 35.9445C106.973 35.4285 107.117 34.8285 107.117 34.1445ZM113.934 30.6345C114.234 30.1305 114.63 29.7405 115.122 29.4645C115.626 29.1765 116.22 29.0325 116.904 29.0325V31.1565H116.382C115.578 31.1565 114.966 31.3605 114.546 31.7685C114.138 32.1765 113.934 32.8845 113.934 33.8925V39.1125H111.882V29.1945H113.934V30.6345ZM123.794 29.0325C124.574 29.0325 125.27 29.1945 125.882 29.5185C126.506 29.8425 126.992 30.3225 127.34 30.9585C127.688 31.5945 127.862 32.3625 127.862 33.2625V39.1125H125.828V33.5685C125.828 32.6805 125.606 32.0025 125.162 31.5345C124.718 31.0545 124.112 30.8145 123.344 30.8145C122.576 30.8145 121.964 31.0545 121.508 31.5345C121.064 32.0025 120.842 32.6805 120.842 33.5685V39.1125H118.79V29.1945H120.842V30.3285C121.178 29.9205 121.604 29.6025 122.12 29.3745C122.648 29.1465 123.206 29.0325 123.794 29.0325ZM147.161 29.0325C147.941 29.0325 148.637 29.1945 149.249 29.5185C149.873 29.8425 150.359 30.3225 150.707 30.9585C151.067 31.5945 151.247 32.3625 151.247 33.2625V39.1125H149.213V33.5685C149.213 32.6805 148.991 32.0025 148.547 31.5345C148.103 31.0545 147.497 30.8145 146.729 30.8145C145.961 30.8145 145.349 31.0545 144.893 31.5345C144.449 32.0025 144.227 32.6805 144.227 33.5685V39.1125H142.193V33.5685C142.193 32.6805 141.971 32.0025 141.527 31.5345C141.083 31.0545 140.477 30.8145 139.709 30.8145C138.941 30.8145 138.329 31.0545 137.873 31.5345C137.429 32.0025 137.207 32.6805 137.207 33.5685V39.1125H135.155V29.1945H137.207V30.3285C137.543 29.9205 137.969 29.6025 138.485 29.3745C139.001 29.1465 139.553 29.0325 140.141 29.0325C140.933 29.0325 141.641 29.2005 142.265 29.5365C142.889 29.8725 143.369 30.3585 143.705 30.9945C144.005 30.3945 144.473 29.9205 145.109 29.5725C145.745 29.2125 146.429 29.0325 147.161 29.0325ZM158.16 39.2745C157.224 39.2745 156.378 39.0645 155.622 38.6445C154.866 38.2125 154.272 37.6125 153.84 36.8445C153.408 36.0645 153.192 35.1645 153.192 34.1445C153.192 33.1365 153.414 32.2425 153.858 31.4625C154.302 30.6825 154.908 30.0825 155.676 29.6625C156.444 29.2425 157.302 29.0325 158.25 29.0325C159.198 29.0325 160.056 29.2425 160.824 29.6625C161.592 30.0825 162.198 30.6825 162.642 31.4625C163.086 32.2425 163.308 33.1365 163.308 34.1445C163.308 35.1525 163.08 36.0465 162.624 36.8265C162.168 37.6065 161.544 38.2125 160.752 38.6445C159.972 39.0645 159.108 39.2745 158.16 39.2745ZM158.16 37.4925C158.688 37.4925 159.18 37.3665 159.636 37.1145C160.104 36.8625 160.482 36.4845 160.77 35.9805C161.058 35.4765 161.202 34.8645 161.202 34.1445C161.202 33.4245 161.064 32.8185 160.788 32.3265C160.512 31.8225 160.146 31.4445 159.69 31.1925C159.234 30.9405 158.742 30.8145 158.214 30.8145C157.686 30.8145 157.194 30.9405 156.738 31.1925C156.294 31.4445 155.94 31.8225 155.676 32.3265C155.412 32.8185 155.28 33.4245 155.28 34.1445C155.28 35.2125 155.55 36.0405 156.09 36.6285C156.642 37.2045 157.332 37.4925 158.16 37.4925ZM167.389 30.6345C167.689 30.1305 168.085 29.7405 168.577 29.4645C169.081 29.1765 169.675 29.0325 170.359 29.0325V31.1565H169.837C169.033 31.1565 168.421 31.3605 168.001 31.7685C167.593 32.1765 167.389 32.8845 167.389 33.8925V39.1125H165.337V29.1945H167.389V30.6345ZM181.335 33.9105C181.335 34.2825 181.311 34.6185 181.263 34.9185H173.685C173.745 35.7105 174.039 36.3465 174.567 36.8265C175.095 37.3065 175.743 37.5465 176.511 37.5465C177.615 37.5465 178.395 37.0845 178.851 36.1605H181.065C180.765 37.0725 180.219 37.8225 179.427 38.4105C178.647 38.9865 177.675 39.2745 176.511 39.2745C175.563 39.2745 174.711 39.0645 173.955 38.6445C173.211 38.2125 172.623 37.6125 172.191 36.8445C171.771 36.0645 171.561 35.1645 171.561 34.1445C171.561 33.1245 171.765 32.2305 172.173 31.4625C172.593 30.6825 173.175 30.0825 173.919 29.6625C174.675 29.2425 175.539 29.0325 176.511 29.0325C177.447 29.0325 178.281 29.2365 179.013 29.6445C179.745 30.0525 180.315 30.6285 180.723 31.3725C181.131 32.1045 181.335 32.9505 181.335 33.9105ZM179.193 33.2625C179.181 32.5065 178.911 31.9005 178.383 31.4445C177.855 30.9885 177.201 30.7605 176.421 30.7605C175.713 30.7605 175.107 30.9885 174.603 31.4445C174.099 31.8885 173.799 32.4945 173.703 33.2625H179.193Z" fill="#DA4B5A"/>
</svg>
