<svg width="244" height="346" viewBox="0 0 244 346" fill="none" xmlns="http://www.w3.org/2000/svg">
<rect width="244" height="346" rx="8" fill="#FFF8E7"/>
<path d="M25.292 61.0075C26.66 61.0075 27.842 61.2655 28.838 61.7815C29.846 62.2855 30.614 63.0115 31.142 63.9595C31.682 64.9075 31.952 66.0235 31.952 67.3075C31.952 68.5915 31.682 69.7075 31.142 70.6555C30.614 71.5915 29.846 72.3115 28.838 72.8155C27.842 73.3075 26.66 73.5535 25.292 73.5535H21.386V61.0075H25.292ZM25.292 72.2035C26.912 72.2035 28.148 71.7775 29 70.9255C29.852 70.0615 30.278 68.8555 30.278 67.3075C30.278 65.7475 29.846 64.5295 28.982 63.6535C28.13 62.7775 26.9 62.3395 25.292 62.3395H23.024V72.2035H25.292ZM43.1126 68.2435C43.1126 68.5555 43.0946 68.8855 43.0586 69.2335H35.1746C35.2346 70.2055 35.5646 70.9675 36.1646 71.5195C36.7766 72.0595 37.5146 72.3295 38.3786 72.3295C39.0866 72.3295 39.6746 72.1675 40.1426 71.8435C40.6226 71.5075 40.9586 71.0635 41.1506 70.5115H42.9146C42.6506 71.4595 42.1226 72.2335 41.3306 72.8335C40.5386 73.4215 39.5546 73.7155 38.3786 73.7155C37.4426 73.7155 36.6026 73.5055 35.8586 73.0855C35.1266 72.6655 34.5506 72.0715 34.1306 71.3035C33.7106 70.5235 33.5006 69.6235 33.5006 68.6035C33.5006 67.5835 33.7046 66.6895 34.1126 65.9215C34.5206 65.1535 35.0906 64.5655 35.8226 64.1575C36.5666 63.7375 37.4186 63.5275 38.3786 63.5275C39.3146 63.5275 40.1426 63.7315 40.8626 64.1395C41.5826 64.5475 42.1346 65.1115 42.5186 65.8315C42.9146 66.5395 43.1126 67.3435 43.1126 68.2435ZM41.4206 67.9015C41.4206 67.2775 41.2826 66.7435 41.0066 66.2995C40.7306 65.8435 40.3526 65.5015 39.8726 65.2735C39.4046 65.0335 38.8826 64.9135 38.3066 64.9135C37.4786 64.9135 36.7706 65.1775 36.1826 65.7055C35.6066 66.2335 35.2766 66.9655 35.1926 67.9015H41.4206ZM47.2727 65.0395V70.8535C47.2727 71.3335 47.3747 71.6755 47.5787 71.8795C47.7827 72.0715 48.1367 72.1675 48.6407 72.1675H49.8467V73.5535H48.3707C47.4587 73.5535 46.7747 73.3435 46.3187 72.9235C45.8627 72.5035 45.6347 71.8135 45.6347 70.8535V65.0395H44.3567V63.6895H45.6347V61.2055H47.2727V63.6895H49.8467V65.0395H47.2727ZM51.2193 68.5855C51.2193 67.5775 51.4233 66.6955 51.8313 65.9395C52.2393 65.1715 52.7973 64.5775 53.5053 64.1575C54.2253 63.7375 55.0233 63.5275 55.8993 63.5275C56.7633 63.5275 57.5133 63.7135 58.1493 64.0855C58.7853 64.4575 59.2593 64.9255 59.5713 65.4895V63.6895H61.2273V73.5535H59.5713V71.7175C59.2473 72.2935 58.7613 72.7735 58.1133 73.1575C57.4773 73.5295 56.7333 73.7155 55.8813 73.7155C55.0053 73.7155 54.2133 73.4995 53.5053 73.0675C52.7973 72.6355 52.2393 72.0295 51.8313 71.2495C51.4233 70.4695 51.2193 69.5815 51.2193 68.5855ZM59.5713 68.6035C59.5713 67.8595 59.4213 67.2115 59.1213 66.6595C58.8213 66.1075 58.4133 65.6875 57.8973 65.3995C57.3933 65.0995 56.8353 64.9495 56.2233 64.9495C55.6113 64.9495 55.0533 65.0935 54.5493 65.3815C54.0453 65.6695 53.6433 66.0895 53.3433 66.6415C53.0433 67.1935 52.8933 67.8415 52.8933 68.5855C52.8933 69.3415 53.0433 70.0015 53.3433 70.5655C53.6433 71.1175 54.0453 71.5435 54.5493 71.8435C55.0533 72.1315 55.6113 72.2755 56.2233 72.2755C56.8353 72.2755 57.3933 72.1315 57.8973 71.8435C58.4133 71.5435 58.8213 71.1175 59.1213 70.5655C59.4213 70.0015 59.5713 69.3475 59.5713 68.6035ZM64.8414 62.0875C64.5294 62.0875 64.2654 61.9795 64.0494 61.7635C63.8334 61.5475 63.7254 61.2835 63.7254 60.9715C63.7254 60.6595 63.8334 60.3955 64.0494 60.1795C64.2654 59.9635 64.5294 59.8555 64.8414 59.8555C65.1414 59.8555 65.3934 59.9635 65.5974 60.1795C65.8134 60.3955 65.9214 60.6595 65.9214 60.9715C65.9214 61.2835 65.8134 61.5475 65.5974 61.7635C65.3934 61.9795 65.1414 62.0875 64.8414 62.0875ZM65.6334 63.6895V73.5535H63.9954V63.6895H65.6334ZM70.0631 60.2335V73.5535H68.4251V60.2335H70.0631ZM76.3468 73.7155C75.5908 73.7155 74.9128 73.5895 74.3128 73.3375C73.7128 73.0735 73.2388 72.7135 72.8908 72.2575C72.5428 71.7895 72.3508 71.2555 72.3148 70.6555H74.0068C74.0548 71.1475 74.2828 71.5495 74.6908 71.8615C75.1108 72.1735 75.6568 72.3295 76.3288 72.3295C76.9528 72.3295 77.4448 72.1915 77.8048 71.9155C78.1648 71.6395 78.3448 71.2915 78.3448 70.8715C78.3448 70.4395 78.1528 70.1215 77.7688 69.9175C77.3848 69.7015 76.7908 69.4915 75.9868 69.2875C75.2548 69.0955 74.6548 68.9035 74.1868 68.7115C73.7308 68.5075 73.3348 68.2135 72.9988 67.8295C72.6748 67.4335 72.5128 66.9175 72.5128 66.2815C72.5128 65.7775 72.6628 65.3155 72.9628 64.8955C73.2628 64.4755 73.6888 64.1455 74.2408 63.9055C74.7928 63.6535 75.4228 63.5275 76.1308 63.5275C77.2228 63.5275 78.1048 63.8035 78.7768 64.3555C79.4488 64.9075 79.8088 65.6635 79.8568 66.6235H78.2188C78.1828 66.1075 77.9728 65.6935 77.5888 65.3815C77.2168 65.0695 76.7128 64.9135 76.0768 64.9135C75.4888 64.9135 75.0208 65.0395 74.6728 65.2915C74.3248 65.5435 74.1508 65.8735 74.1508 66.2815C74.1508 66.6055 74.2528 66.8755 74.4568 67.0915C74.6728 67.2955 74.9368 67.4635 75.2488 67.5955C75.5728 67.7155 76.0168 67.8535 76.5808 68.0095C77.2888 68.2015 77.8648 68.3935 78.3088 68.5855C78.7528 68.7655 79.1308 69.0415 79.4428 69.4135C79.7668 69.7855 79.9348 70.2715 79.9468 70.8715C79.9468 71.4115 79.7968 71.8975 79.4968 72.3295C79.1968 72.7615 78.7708 73.1035 78.2188 73.3555C77.6788 73.5955 77.0548 73.7155 76.3468 73.7155Z" fill="#414141"/>
<path d="M27.7266 114.851C27.7266 112.724 28.9023 111.506 31.2539 111.198C31.3379 111.198 31.3939 111.198 31.4219 111.198V119.89C29.0703 118.323 27.8385 116.643 27.7266 114.851ZM36.6709 130.263C36.6149 132.754 35.2712 134.196 32.6396 134.588V125.139C34.9912 126.427 36.307 127.855 36.5869 129.423C36.6429 129.703 36.6709 129.983 36.6709 130.263ZM32.6396 139.375V135.931C36.251 135.68 38.8125 134.532 40.3242 132.488C41.1361 131.368 41.542 130.095 41.542 128.667C41.542 126.483 40.2822 124.636 37.7627 123.124C37.3988 122.872 35.8451 122.074 33.1016 120.73C32.9336 120.646 32.7796 120.576 32.6396 120.52V111.156C34.0674 111.156 34.9632 111.758 35.3271 112.962C35.4111 113.214 35.4951 113.606 35.5791 114.138C35.8311 115.397 36.195 116.209 36.6709 116.573C37.1188 116.881 37.7067 117.035 38.4346 117.035C39.6943 117.035 40.4362 116.419 40.6602 115.187C40.6882 114.963 40.7021 114.753 40.7021 114.557C40.7021 112.962 39.5404 111.716 37.2168 110.82C35.8451 110.316 34.3193 110.022 32.6396 109.938V106.201H31.4219V109.938C28.0625 110.078 25.599 111.03 24.0312 112.794C23.1074 113.858 22.6455 115.103 22.6455 116.531C22.6455 118.687 23.9473 120.548 26.5508 122.116C26.8867 122.312 28.4544 123.096 31.2539 124.468C31.3379 124.496 31.3939 124.524 31.4219 124.552V134.714H31.0859C29.4062 134.714 28.3424 134.056 27.8945 132.74C27.7826 132.46 27.6706 132.026 27.5586 131.438C27.2786 130.123 26.8867 129.269 26.3828 128.877C25.9069 128.541 25.277 128.373 24.4932 128.373C23.1774 128.373 22.3236 128.919 21.9316 130.011C21.8477 130.291 21.8057 130.584 21.8057 130.892C21.8057 132.46 22.7995 133.734 24.7871 134.714C26.5228 135.554 28.7344 135.973 31.4219 135.973V139.375H32.6396ZM52.9639 113.004L44.1875 118.673L44.9434 119.848L51.1582 116.027V134.084L45.6992 134.462V135.554H60.9424C60.9424 134.966 60.6484 134.616 60.0605 134.504C59.9486 134.476 59.8366 134.462 59.7246 134.462L56.0713 134.084V113.004H52.9639ZM73.3721 112.584C69.8167 112.584 67.1012 113.956 65.2256 116.699C63.8538 118.743 63.168 121.234 63.168 124.174C63.168 128.709 64.5397 132.026 67.2832 134.126C68.9349 135.358 70.8945 135.973 73.1621 135.973C76.6895 135.973 79.363 134.588 81.1826 131.816C82.5264 129.773 83.1982 127.281 83.1982 124.342C83.1982 119.443 81.7145 116.013 78.7471 114.054C77.2074 113.074 75.4157 112.584 73.3721 112.584ZM73.2881 134.84C71.1885 134.84 69.8027 133.594 69.1309 131.102C68.6829 129.479 68.459 127.225 68.459 124.342C68.459 118.519 69.4808 115.103 71.5244 114.096C72.0283 113.844 72.6022 113.718 73.2461 113.718C75.3177 113.718 76.6755 115.075 77.3193 117.791C77.7113 119.387 77.9072 121.5 77.9072 124.132C77.9072 129.703 77.0534 133.076 75.3457 134.252C74.7578 134.644 74.0719 134.84 73.2881 134.84ZM96.6357 112.584C93.0804 112.584 90.3649 113.956 88.4893 116.699C87.1175 118.743 86.4316 121.234 86.4316 124.174C86.4316 128.709 87.8034 132.026 90.5469 134.126C92.1986 135.358 94.1582 135.973 96.4258 135.973C99.9531 135.973 102.627 134.588 104.446 131.816C105.79 129.773 106.462 127.281 106.462 124.342C106.462 119.443 104.978 116.013 102.011 114.054C100.471 113.074 98.6794 112.584 96.6357 112.584ZM96.5518 134.84C94.4521 134.84 93.0664 133.594 92.3945 131.102C91.9466 129.479 91.7227 127.225 91.7227 124.342C91.7227 118.519 92.7445 115.103 94.7881 114.096C95.292 113.844 95.8659 113.718 96.5098 113.718C98.5814 113.718 99.9391 115.075 100.583 117.791C100.975 119.387 101.171 121.5 101.171 124.132C101.171 129.703 100.317 133.076 98.6094 134.252C98.0215 134.644 97.3356 134.84 96.5518 134.84ZM114.902 133.076C114.902 131.984 114.412 131.186 113.433 130.682C113.013 130.458 112.593 130.346 112.173 130.346C111.053 130.346 110.255 130.85 109.779 131.858C109.583 132.25 109.485 132.656 109.485 133.076C109.485 134.224 109.989 135.036 110.997 135.512C111.389 135.68 111.781 135.763 112.173 135.763C113.265 135.763 114.062 135.288 114.566 134.336C114.79 133.944 114.902 133.524 114.902 133.076ZM136.36 138.367C136.36 137.695 136.178 137.331 135.814 137.275C135.674 137.247 135.521 137.233 135.353 137.233H132.665V131.942H136.36V130.682H132.665V121.99H131.741L131.195 123.754C130.887 124.79 130.327 125.391 129.516 125.559C129.208 125.615 128.83 125.643 128.382 125.643H127.962V130.64L118.472 130.598C123.427 126.455 126.688 123.6 128.256 122.032C131.251 118.981 132.763 116.615 132.791 114.935C132.791 113.592 132.119 112.794 130.775 112.542C130.551 112.486 130.299 112.458 130.02 112.458C128.816 112.458 127.934 113.004 127.374 114.096C127.318 114.263 126.912 115.439 126.156 117.623C124.757 121.682 122.363 125.321 118.976 128.541C118.22 129.241 117.422 129.927 116.582 130.598L116.834 131.858L127.962 131.9V137.233H123.259V138.367H136.36ZM158.028 130.766C158.028 127.743 156.839 125.545 154.459 124.174C153.059 123.362 151.436 122.956 149.588 122.956C147.32 122.984 145.277 123.572 143.457 124.72V116.783C145.641 117.035 147.586 117.161 149.294 117.161C152.289 117.161 154.193 116.769 155.005 115.985C155.733 115.117 156.111 113.564 156.139 111.324H155.047C154.739 112.276 154.165 112.864 153.325 113.088C152.737 113.256 151.869 113.34 150.722 113.34C150.666 113.34 147.768 113.214 142.029 112.962V125.265L143.457 126.357C144.969 125.153 146.522 124.552 148.118 124.552C150.414 124.552 151.953 125.657 152.737 127.869C153.045 128.765 153.199 129.759 153.199 130.85C153.199 134.322 152.163 136.505 150.092 137.401C149.476 137.681 148.79 137.821 148.034 137.821C146.578 137.821 145.711 137.163 145.431 135.847C145.347 135.54 145.291 135.05 145.263 134.378C145.151 132.95 144.857 132.04 144.381 131.648C143.989 131.312 143.443 131.144 142.743 131.144C141.427 131.144 140.644 131.732 140.392 132.908C140.336 133.16 140.308 133.398 140.308 133.622C140.308 135.582 141.371 137.051 143.499 138.031C144.759 138.619 146.215 138.913 147.866 138.913C151.282 138.913 153.955 137.961 155.887 136.057C157.314 134.602 158.028 132.838 158.028 130.766Z" fill="black"/>
<path d="M28.9648 178.554V178.065H21.2891L21.25 181.522H21.7188L22.0703 180.565C22.2526 180.096 22.5391 179.83 22.9297 179.764C23.0859 179.738 23.3073 179.725 23.5938 179.725H26.7188L23.3008 183.671L23.7695 184.061C24.2383 183.866 24.6875 183.768 25.1172 183.768C26.0938 183.768 26.7318 184.296 27.0312 185.35C27.1224 185.702 27.168 186.086 27.168 186.503C27.0898 188.521 26.1784 189.556 24.4336 189.608C23.7044 189.608 23.2682 189.289 23.125 188.651C23.0859 188.508 23.0534 188.274 23.0273 187.948C22.9753 187.297 22.8451 186.88 22.6367 186.698C22.4544 186.555 22.2135 186.483 21.9141 186.483C21.3021 186.483 20.931 186.75 20.8008 187.284C20.7747 187.401 20.7617 187.518 20.7617 187.636C20.7617 188.612 21.3411 189.322 22.5 189.764C23.138 189.999 23.8542 190.116 24.6484 190.116C26.4193 190.116 27.7474 189.563 28.6328 188.456C29.1536 187.792 29.4141 187.05 29.4141 186.229C29.4141 185.136 28.9648 184.302 28.0664 183.729C27.4414 183.339 26.6797 183.143 25.7812 183.143C25.3255 183.143 24.9023 183.189 24.5117 183.28L28.9648 178.554ZM35.7617 177.87C34.1081 177.87 32.8451 178.508 31.9727 179.784C31.3346 180.735 31.0156 181.893 31.0156 183.261C31.0156 185.37 31.6536 186.913 32.9297 187.889C33.6979 188.462 34.6094 188.749 35.6641 188.749C37.3047 188.749 38.5482 188.104 39.3945 186.815C40.0195 185.865 40.332 184.706 40.332 183.339C40.332 181.06 39.6419 179.465 38.2617 178.554C37.5456 178.098 36.7122 177.87 35.7617 177.87ZM35.7227 188.221C34.7461 188.221 34.1016 187.642 33.7891 186.483C33.5807 185.728 33.4766 184.68 33.4766 183.339C33.4766 180.63 33.9518 179.042 34.9023 178.573C35.1367 178.456 35.4036 178.397 35.7031 178.397C36.6667 178.397 37.2982 179.029 37.5977 180.292C37.7799 181.034 37.8711 182.017 37.8711 183.241C37.8711 185.832 37.474 187.401 36.6797 187.948C36.4062 188.13 36.0872 188.221 35.7227 188.221ZM49.2773 188.046H48.75L48.7695 183.221C48.8607 182.154 49.2383 181.431 49.9023 181.054C50.1107 180.936 50.319 180.878 50.5273 180.878C51.0612 180.878 51.4388 181.197 51.6602 181.835C51.7513 182.121 51.7969 182.447 51.7969 182.811V186.991C51.7969 187.525 51.6732 187.844 51.4258 187.948C51.2826 188.013 51.0677 188.046 50.7812 188.046V188.554H54.9414C54.9414 188.267 54.8568 188.104 54.6875 188.065C54.6094 188.052 54.5312 188.046 54.4531 188.046H53.9453V183.104V182.85C54.0885 181.887 54.4727 181.255 55.0977 180.956C55.2669 180.878 55.4362 180.839 55.6055 180.839C56.2044 180.839 56.6211 181.171 56.8555 181.835C56.9466 182.134 56.9922 182.46 56.9922 182.811V186.991C56.9922 187.525 56.8685 187.844 56.6211 187.948C56.4779 188.013 56.263 188.046 55.9766 188.046V188.554H60.3711C60.3711 188.267 60.2865 188.104 60.1172 188.065C60.0391 188.052 59.9609 188.046 59.8828 188.046H59.1406V183.026C59.1406 181.737 58.7109 180.826 57.8516 180.292C57.4609 180.044 57.0378 179.921 56.582 179.921C55.3581 179.921 54.4401 180.513 53.8281 181.698C53.8021 181.75 53.7826 181.796 53.7695 181.835C53.4831 180.871 52.9362 180.266 52.1289 180.018C51.9206 179.953 51.7057 179.921 51.4844 179.921C50.3385 179.921 49.4727 180.429 48.8867 181.444C48.8346 181.548 48.7826 181.652 48.7305 181.757L48.6328 180.194H45.3516V180.682H46.6016V186.991C46.6016 187.564 46.3867 187.896 45.957 187.987C45.7878 188.026 45.5859 188.046 45.3516 188.046V188.554H49.7461C49.7461 188.254 49.6484 188.091 49.4531 188.065C49.401 188.052 49.3424 188.046 49.2773 188.046ZM65.8008 188.046H64.8047V175.858H61.1523V176.366H62.6562V186.952C62.6562 187.512 62.4609 187.85 62.0703 187.968C61.875 188.02 61.569 188.046 61.1523 188.046V188.554H66.2891C66.2891 188.267 66.2044 188.104 66.0352 188.065C65.957 188.052 65.8789 188.046 65.8008 188.046Z" fill="black"/>
<path d="M28.798 209.625L30.118 212.265C30.298 212.625 30.778 212.985 31.178 213.045L33.568 213.445C35.098 213.705 35.458 214.805 34.358 215.905L32.498 217.775C32.188 218.085 32.008 218.695 32.108 219.135L32.638 221.445C33.058 223.265 32.088 223.975 30.478 223.025L28.238 221.695C27.828 221.455 27.168 221.455 26.758 221.695L24.508 223.015C22.898 223.965 21.928 223.255 22.348 221.435L22.878 219.125C22.978 218.695 22.798 218.085 22.488 217.765L20.638 215.915C19.538 214.815 19.898 213.705 21.428 213.455L23.818 213.055C24.218 212.985 24.698 212.635 24.878 212.275L26.198 209.635C26.908 208.195 28.088 208.195 28.798 209.625Z" fill="#BC8D14"/>
<path d="M53.7941 209.625L55.1141 212.265C55.2941 212.625 55.7741 212.985 56.1741 213.045L58.5641 213.445C60.0941 213.705 60.4541 214.805 59.3541 215.905L57.4941 217.775C57.1841 218.085 57.0041 218.695 57.1041 219.135L57.6341 221.445C58.0541 223.265 57.0841 223.975 55.4741 223.025L53.2341 221.695C52.8241 221.455 52.1641 221.455 51.7541 221.695L49.5041 223.015C47.8941 223.965 46.9241 223.255 47.3441 221.435L47.8741 219.125C47.9741 218.695 47.7941 218.085 47.4841 217.765L45.6341 215.915C44.5341 214.815 44.8941 213.705 46.4241 213.455L48.8141 213.055C49.2141 212.985 49.6941 212.635 49.8741 212.275L51.1941 209.635C51.9041 208.195 53.0841 208.195 53.7941 209.625Z" fill="#BC8D14"/>
<path d="M78.7901 209.625L80.1101 212.265C80.2901 212.625 80.7701 212.985 81.1701 213.045L83.5601 213.445C85.0901 213.705 85.4501 214.805 84.3501 215.905L82.4901 217.775C82.1801 218.085 82.0001 218.695 82.1001 219.135L82.6301 221.445C83.0501 223.265 82.0801 223.975 80.4701 223.025L78.2301 221.695C77.8201 221.455 77.1601 221.455 76.7501 221.695L74.5001 223.015C72.8901 223.965 71.9201 223.255 72.3401 221.435L72.8701 219.125C72.9701 218.695 72.7901 218.085 72.4801 217.765L70.6301 215.915C69.5301 214.815 69.8901 213.705 71.4201 213.455L73.8101 213.055C74.2101 212.985 74.6901 212.635 74.8701 212.275L76.1901 209.635C76.9001 208.195 78.0801 208.195 78.7901 209.625Z" fill="#BC8D14"/>
<path d="M103.786 209.625L105.106 212.265C105.286 212.625 105.766 212.985 106.166 213.045L108.556 213.445C110.086 213.705 110.446 214.805 109.346 215.905L107.486 217.775C107.176 218.085 106.996 218.695 107.096 219.135L107.626 221.445C108.046 223.265 107.076 223.975 105.466 223.025L103.226 221.695C102.816 221.455 102.156 221.455 101.746 221.695L99.4961 223.015C97.8861 223.965 96.9161 223.255 97.3361 221.435L97.8661 219.125C97.9661 218.695 97.7861 218.085 97.4761 217.765L95.6261 215.915C94.5261 214.815 94.8861 213.705 96.4161 213.455L98.8061 213.055C99.2061 212.985 99.6861 212.635 99.8661 212.275L101.186 209.635C101.896 208.195 103.076 208.195 103.786 209.625Z" fill="#BC8D14"/>
<path d="M128.782 209.625L130.102 212.265C130.282 212.625 130.762 212.985 131.162 213.045L133.552 213.445C135.082 213.705 135.442 214.805 134.342 215.905L132.482 217.775C132.172 218.085 131.992 218.695 132.092 219.135L132.622 221.445C133.042 223.265 132.072 223.975 130.462 223.025L128.222 221.695C127.812 221.455 127.152 221.455 126.742 221.695L124.492 223.015C122.882 223.965 121.912 223.255 122.332 221.435L122.862 219.125C122.962 218.695 122.782 218.085 122.472 217.765L120.622 215.915C119.522 214.815 119.882 213.705 121.412 213.455L123.802 213.055C124.202 212.985 124.682 212.635 124.862 212.275L126.182 209.635C126.892 208.195 128.072 208.195 128.782 209.625Z" fill="#434240"/>
<path d="M71.5 251.946H20.5V269.446C20.5 281.873 30.5736 291.946 43 291.946H71.5V251.946Z" stroke="#666666"/>
<path d="M49.09 279.866L42.57 273.346C41.8 272.576 41.8 271.316 42.57 270.546L49.09 264.026" stroke="#292D32" stroke-width="1.5" stroke-miterlimit="10" stroke-linecap="round" stroke-linejoin="round"/>
<path d="M71.5 251.946H122.5V269.446C122.5 281.873 112.426 291.946 100 291.946H71.5V251.946Z" stroke="#666666"/>
<path d="M93.91 279.866L100.43 273.346C101.2 272.576 101.2 271.316 100.43 270.546L93.91 264.026" stroke="#292D32" stroke-width="1.5" stroke-miterlimit="10" stroke-linecap="round" stroke-linejoin="round"/>
</svg>
